<?xml version="1.0" encoding="UTF-8"?><svg id="uuid-d26c1eb5-ca0b-418c-a921-e4cc150aab1b" xmlns="http://www.w3.org/2000/svg" viewBox="0 0 200 250"><defs><style>.uuid-e526c46c-0efd-4824-9866-0b00220a8e4a{fill:#fff;}.uuid-0d53a855-b7fe-46f5-9905-729ddc896559{fill:#333;}.uuid-7707bf42-c8dc-4102-b639-458aef063334{fill:none;}.uuid-27801395-f239-438d-ae5a-fe750402ab02{fill:#c8bb9b;}</style></defs><g id="uuid-3024707f-2a92-4a20-a1aa-d2b71b6da56c"><g><rect class="uuid-0d53a855-b7fe-46f5-9905-729ddc896559" width="200" height="250"/><g><path class="uuid-e526c46c-0efd-4824-9866-0b00220a8e4a" d="M27.23,124c.81-.35,1.64-.53,2.49-.53s1.67,.18,2.49,.53,1.52,.82,2.13,1.41,1.1,1.29,1.47,2.11c.37,.82,.56,1.68,.56,2.57s-.19,1.75-.56,2.57-.86,1.52-1.47,2.11-1.32,1.05-2.13,1.4-1.64,.52-2.49,.52-1.67-.17-2.49-.52-1.52-.82-2.13-1.4-1.1-1.29-1.47-2.11-.56-1.68-.56-2.57,.19-1.75,.56-2.57c.37-.82,.86-1.53,1.47-2.11s1.32-1.05,2.13-1.41Zm2.02,.31c-.44,0-.84,.1-1.2,.31s-.65,.47-.87,.81c-.23,.33-.42,.72-.57,1.17-.15,.45-.26,.91-.32,1.37-.06,.47-.09,.95-.09,1.44s.03,1.02,.09,1.52,.15,.99,.28,1.48c.12,.49,.29,.94,.5,1.35s.46,.77,.74,1.09c.28,.32,.62,.56,1.02,.74,.4,.18,.83,.27,1.3,.27s.85-.1,1.22-.3c.36-.2,.66-.47,.89-.8,.23-.33,.42-.72,.58-1.16,.15-.45,.26-.9,.33-1.36,.06-.46,.1-.94,.1-1.44,0-.62-.04-1.23-.13-1.82s-.23-1.18-.43-1.75c-.2-.57-.45-1.07-.75-1.49-.3-.43-.68-.77-1.14-1.03-.46-.26-.97-.39-1.53-.39Z"/><path class="uuid-e526c46c-0efd-4824-9866-0b00220a8e4a" d="M42.48,123.71c.69,0,1.4-.05,2.13-.14,.18,.36,.51,.87,1,1.54,.49,.67,.98,1.3,1.46,1.9,.49,.6,1.14,1.4,1.96,2.39,.82,.99,1.44,1.75,1.85,2.26,.03-.09,.04-.36,.04-.8v-3.65c0-.44-.02-.93-.06-1.47s-.09-.89-.16-1.03c-.07-.15-.28-.26-.65-.33s-.68-.1-.93-.1c-.01,0-.03-.05-.04-.14-.01-.09-.02-.2-.02-.32,0-.12,.02-.21,.05-.26,.23,.01,.61,.04,1.12,.09,.51,.05,.93,.07,1.27,.07s.79-.02,1.37-.07c.58-.05,.94-.08,1.09-.08,.03,.08,.04,.2,.04,.37s-.03,.29-.08,.38c-.12,0-.28,0-.47,.02-.19,.01-.42,.06-.68,.13-.27,.07-.42,.17-.47,.3-.05,.13-.09,.47-.13,1.02-.04,.55-.06,1.01-.06,1.39v6.64c0,.47,.03,1.38,.08,2.73-.05,.05-.21,.08-.49,.08-.18,0-.38-.15-.61-.45l-7.95-9.79v7.07c0,.34,.02,.7,.07,1.09,.04,.39,.09,.66,.15,.8,.06,.16,.29,.28,.7,.37,.41,.09,.71,.14,.9,.14,.05,.08,.08,.21,.08,.38s-.01,.29-.04,.37c-.15,0-.51-.03-1.09-.08-.58-.05-1.04-.07-1.37-.07s-.75,.02-1.27,.07c-.51,.05-.88,.07-1.12,.09-.03-.05-.05-.14-.05-.26,0-.12,0-.23,.02-.32,.01-.09,.03-.14,.04-.14,.21,0,.5-.05,.89-.14,.38-.09,.61-.22,.67-.37,.06-.14,.12-.41,.17-.81,.04-.39,.07-.78,.07-1.17v-6.91c0-.83-.12-1.41-.35-1.76-.08-.11-.27-.21-.58-.29-.31-.08-.54-.12-.71-.12-.05,0-.08-.11-.09-.32s0-.35,.05-.4c.12,0,.32,.02,.6,.05,.28,.03,.55,.05,.81,.06,.26,.02,.53,.02,.8,.02Z"/><path class="uuid-e526c46c-0efd-4824-9866-0b00220a8e4a" d="M61.68,133.75c0,.77,.05,1.28,.16,1.54,.05,.12,.21,.22,.46,.29s.52,.1,.81,.1h1.29c.78,0,1.39-.21,1.82-.64,.38-.38,.73-1,1.05-1.86,.02-.08,.11-.12,.27-.12,.1,0,.22,.01,.35,.04,.13,.03,.21,.05,.23,.08-.03,.08-.1,.29-.23,.64s-.22,.61-.27,.77c-.05,.16-.13,.38-.22,.66-.09,.28-.16,.52-.21,.73s-.09,.39-.12,.55c-2.75,0-5,0-6.75,0-1.68,0-2.61,0-2.78,0-.04-.06-.06-.18-.06-.35,0-.18,.02-.3,.06-.37,.77-.06,1.18-.17,1.25-.33,.1-.26,.16-.87,.16-1.84v-7.19c0-.96-.05-1.58-.16-1.84-.07-.18-.48-.29-1.25-.35-.05-.07-.07-.2-.06-.37,0-.18,.02-.29,.06-.35,.89,.09,1.82,.14,2.79,.14s1.86-.05,2.75-.14c.04,.06,.06,.18,.06,.35,0,.18-.02,.3-.06,.37-.77,.06-1.18,.18-1.25,.35-.12,.29-.17,.9-.16,1.84v7.27Z"/><path class="uuid-e526c46c-0efd-4824-9866-0b00220a8e4a" d="M74.04,123.71c.94,0,1.86-.05,2.75-.14,.04,.06,.06,.18,.06,.35,0,.18-.02,.3-.06,.37-.77,.06-1.19,.18-1.25,.35-.1,.26-.16,.87-.16,1.84v7.19c0,.96,.05,1.58,.16,1.84,.06,.18,.48,.29,1.25,.35,.04,.07,.07,.2,.06,.37,0,.18-.02,.29-.06,.35-.89-.09-1.82-.14-2.79-.14s-1.86,.05-2.75,.14c-.04-.06-.06-.18-.06-.35,0-.18,.02-.3,.06-.37,.77-.06,1.18-.18,1.25-.35,.1-.26,.16-.87,.16-1.84v-7.19c0-.96-.05-1.58-.16-1.84-.07-.18-.48-.29-1.25-.35-.05-.07-.07-.2-.06-.37,0-.18,.02-.29,.06-.35,.89,.09,1.82,.14,2.79,.14Z"/><path class="uuid-e526c46c-0efd-4824-9866-0b00220a8e4a" d="M82.86,123.71c.69,0,1.4-.05,2.13-.14,.18,.36,.51,.87,1,1.54,.49,.67,.98,1.3,1.46,1.9,.48,.6,1.14,1.4,1.96,2.39,.82,.99,1.44,1.75,1.85,2.26,.03-.09,.04-.36,.04-.8v-3.65c0-.44-.02-.93-.06-1.47s-.09-.89-.16-1.03c-.06-.15-.28-.26-.65-.33s-.68-.1-.93-.1c-.01,0-.03-.05-.04-.14-.01-.09-.02-.2-.01-.32,0-.12,.02-.21,.05-.26,.23,.01,.61,.04,1.12,.09,.51,.05,.93,.07,1.26,.07s.79-.02,1.37-.07c.58-.05,.94-.08,1.09-.08,.03,.08,.04,.2,.04,.37s-.03,.29-.08,.38c-.12,0-.28,0-.47,.02-.19,.01-.42,.06-.68,.13-.27,.07-.42,.17-.47,.3-.04,.13-.09,.47-.13,1.02-.04,.55-.06,1.01-.06,1.39v6.64c0,.47,.03,1.38,.08,2.73-.05,.05-.21,.08-.49,.08-.18,0-.38-.15-.61-.45l-7.95-9.79v7.07c0,.34,.02,.7,.07,1.09,.05,.39,.09,.66,.15,.8,.06,.16,.29,.28,.7,.37,.41,.09,.71,.14,.9,.14,.05,.08,.08,.21,.08,.38s-.01,.29-.04,.37c-.15,0-.51-.03-1.09-.08-.58-.05-1.04-.07-1.37-.07s-.75,.02-1.26,.07c-.51,.05-.88,.07-1.12,.09-.03-.05-.05-.14-.05-.26,0-.12,0-.23,.01-.32,.01-.09,.03-.14,.04-.14,.21,0,.5-.05,.89-.14,.38-.09,.61-.22,.67-.37,.07-.14,.12-.41,.17-.81,.05-.39,.07-.78,.07-1.17v-6.91c0-.83-.12-1.41-.35-1.76-.08-.11-.27-.21-.58-.29-.31-.08-.55-.12-.71-.12-.05,0-.08-.11-.09-.32s0-.35,.05-.4c.12,0,.32,.02,.6,.05,.28,.03,.55,.05,.82,.06,.26,.02,.53,.02,.79,.02Z"/><path class="uuid-e526c46c-0efd-4824-9866-0b00220a8e4a" d="M100.71,123.67c.31,0,1.39-.02,3.23-.06,1.84-.04,2.88-.07,3.12-.07,.04,.29,.09,.6,.16,.93,.06,.33,.14,.69,.23,1.1,.09,.41,.15,.7,.18,.86-.07,.07-.21,.1-.45,.1-.17,0-.27-.05-.31-.16-.12-.31-.23-.56-.34-.77-.11-.21-.25-.41-.42-.61-.17-.2-.36-.35-.59-.44s-.48-.15-.77-.15h-1.62c-.58,0-.91,.08-.98,.23-.07,.16-.1,.55-.1,1.19v3.5c0,.06,.09,.11,.26,.15,.17,.04,.37,.06,.58,.06h1.04c.57,0,.96-.08,1.17-.25,.21-.17,.39-.54,.55-1.11,.02-.1,.1-.16,.23-.16,.18,0,.31,.03,.37,.1v3.75c-.05,.05-.17,.08-.35,.08-.16,0-.25-.05-.27-.16-.17-.66-.4-1.06-.68-1.19-.22-.09-.72-.14-1.48-.14-.94,0-1.41,.09-1.41,.27v3.03c0,.77,.05,1.28,.16,1.54,.05,.12,.21,.22,.46,.29s.52,.1,.81,.1h1.29c.78,0,1.39-.21,1.82-.64,.38-.38,.73-1,1.05-1.86,.02-.08,.11-.12,.27-.12,.1,0,.22,.01,.35,.04,.13,.03,.21,.05,.23,.08-.03,.08-.1,.29-.23,.64s-.22,.61-.27,.77c-.06,.16-.13,.38-.22,.66-.09,.28-.16,.52-.21,.73-.05,.21-.09,.39-.12,.55-5.85,0-9.02,0-9.53,.02-.04-.06-.06-.18-.06-.35s.02-.3,.06-.37c.77-.06,1.18-.17,1.25-.33,.1-.26,.16-.87,.16-1.84v-7.19c0-.96-.05-1.58-.16-1.84-.06-.15-.48-.25-1.25-.31-.05-.07-.07-.2-.06-.37s.02-.29,.06-.35c.59,.04,1.52,.06,2.79,.06Z"/><path class="uuid-e526c46c-0efd-4824-9866-0b00220a8e4a" d="M124.8,123.42c.27,0,.56,.02,.86,.06s.55,.08,.74,.12c.19,.04,.48,.1,.86,.19,.38,.08,.66,.15,.83,.19,.08,.82,.15,1.9,.21,3.24-.06,.08-.13,.12-.21,.12-.36,0-.56-.05-.59-.14-.04-.29-.13-.6-.26-.93-.14-.33-.31-.64-.52-.95-.21-.31-.48-.56-.8-.77-.32-.2-.66-.3-1.02-.3-.45,0-.84,.13-1.17,.4-.33,.27-.49,.7-.49,1.3,0,.23,.07,.48,.2,.72,.13,.25,.28,.47,.44,.66,.17,.19,.4,.41,.7,.65s.54,.43,.73,.57c.19,.13,.44,.31,.77,.52,.05,.03,.18,.12,.39,.25s.34,.23,.41,.27c.07,.05,.19,.14,.38,.27s.32,.24,.4,.32c.08,.07,.19,.19,.34,.34,.15,.15,.26,.28,.32,.4,.07,.11,.15,.26,.25,.43,.1,.18,.17,.35,.21,.51,.04,.17,.08,.35,.12,.57,.04,.21,.05,.43,.05,.66,0,.69-.21,1.32-.62,1.88-.41,.56-.94,.99-1.59,1.29s-1.33,.44-2.05,.44c-1.02,0-2.26-.17-3.71-.51-.09-.39-.19-.96-.28-1.7-.1-.75-.16-1.28-.19-1.62,.04-.05,.13-.11,.27-.18,.14-.06,.24-.1,.3-.1,.15,0,.23,.05,.25,.16,.05,.28,.16,.59,.33,.94,.17,.35,.39,.68,.65,1.02s.59,.61,.98,.83c.39,.22,.79,.34,1.21,.34,.55,0,1-.15,1.36-.46,.36-.31,.54-.78,.54-1.44,0-.17-.03-.34-.09-.51-.06-.17-.13-.33-.21-.47-.08-.14-.2-.29-.36-.46-.16-.17-.3-.31-.41-.41-.11-.1-.27-.24-.48-.4-.21-.16-.37-.28-.46-.34-.09-.06-.25-.17-.48-.32-.22-.15-.36-.24-.4-.26-.8-.53-1.33-.92-1.6-1.17-.77-.7-1.19-1.51-1.24-2.44,0-.08,0-.16,0-.23,0-.64,.21-1.24,.62-1.8,.41-.55,.94-.98,1.58-1.28s1.29-.45,1.96-.45Z"/><path class="uuid-e526c46c-0efd-4824-9866-0b00220a8e4a" d="M135.71,123.71c.94,0,1.86-.05,2.75-.14,.04,.06,.06,.18,.06,.35,0,.18-.02,.3-.06,.37-.77,.06-1.19,.18-1.25,.35-.1,.26-.16,.87-.16,1.84v2.77l.04,.06c1.52,.04,2.31,.06,2.36,.06,.12,0,.88-.02,2.29-.06,.03-.03,.04-.05,.04-.08l-.02-2.75c0-.96-.05-1.58-.16-1.84-.07-.18-.48-.29-1.25-.35-.05-.07-.07-.2-.06-.37,0-.18,.02-.29,.06-.35,.89,.09,1.82,.14,2.79,.14s1.86-.05,2.75-.14c.04,.06,.06,.18,.06,.35,0,.18-.02,.3-.06,.37-.77,.06-1.19,.18-1.25,.35-.1,.26-.16,.87-.16,1.84v7.19c0,.96,.05,1.58,.16,1.84,.06,.18,.48,.29,1.25,.35,.04,.07,.07,.2,.06,.37,0,.18-.02,.29-.06,.35-.89-.09-1.82-.14-2.79-.14s-1.86,.05-2.75,.14c-.04-.06-.06-.18-.06-.35,0-.18,.02-.3,.06-.37,.77-.06,1.18-.18,1.25-.35,.1-.26,.16-.87,.16-1.84v-3.22l-.04-.1c-.96-.03-1.72-.04-2.27-.04-1.51,0-2.3,.03-2.38,.08l-.02,.08v3.2c0,.96,.05,1.58,.16,1.84,.06,.18,.48,.29,1.25,.35,.04,.07,.07,.2,.06,.37,0,.18-.02,.29-.06,.35-.89-.09-1.82-.14-2.79-.14s-1.86,.05-2.75,.14c-.04-.06-.06-.18-.06-.35,0-.18,.02-.3,.06-.37,.77-.06,1.18-.18,1.25-.35,.1-.26,.16-.87,.16-1.84v-7.19c0-.96-.05-1.58-.16-1.84-.07-.18-.48-.29-1.25-.35-.05-.07-.07-.2-.06-.37,0-.18,.02-.29,.06-.35,.89,.09,1.82,.14,2.79,.14Z"/><path class="uuid-e526c46c-0efd-4824-9866-0b00220a8e4a" d="M153.97,124c.81-.35,1.64-.53,2.48-.53s1.68,.18,2.49,.53,1.52,.82,2.13,1.41c.61,.59,1.1,1.29,1.47,2.11,.37,.82,.56,1.68,.56,2.57s-.19,1.75-.56,2.57-.86,1.52-1.47,2.11c-.61,.59-1.32,1.05-2.13,1.4s-1.64,.52-2.49,.52-1.67-.17-2.48-.52-1.52-.82-2.13-1.4c-.61-.59-1.1-1.29-1.47-2.11s-.56-1.68-.56-2.57,.19-1.75,.56-2.57c.37-.82,.86-1.53,1.47-2.11,.61-.59,1.32-1.05,2.13-1.41Zm2.02,.31c-.44,0-.84,.1-1.2,.31-.36,.21-.65,.47-.88,.81-.23,.33-.42,.72-.57,1.17-.15,.45-.25,.91-.32,1.37-.06,.47-.09,.95-.09,1.44s.03,1.02,.09,1.52c.06,.5,.15,.99,.28,1.48,.12,.49,.29,.94,.5,1.35,.21,.41,.46,.77,.74,1.09,.28,.32,.62,.56,1.02,.74,.4,.18,.83,.27,1.3,.27s.86-.1,1.22-.3c.36-.2,.66-.47,.89-.8,.23-.33,.42-.72,.58-1.16,.15-.45,.26-.9,.33-1.36,.07-.46,.1-.94,.1-1.44,0-.62-.04-1.23-.13-1.82s-.23-1.18-.44-1.75c-.2-.57-.45-1.07-.75-1.49-.3-.43-.68-.77-1.14-1.03-.46-.26-.97-.39-1.53-.39Z"/><path class="uuid-e526c46c-0efd-4824-9866-0b00220a8e4a" d="M177.32,127.09c0,.75-.19,1.42-.58,2.01-.38,.59-.87,1.04-1.46,1.34s-1.22,.45-1.89,.45c-.31,0-.59-.05-.83-.15-.24-.1-.42-.2-.51-.3s-.15-.26-.15-.49c0-.09,.02-.14,.07-.14,.18,.05,.44,.08,.8,.08,.48,0,.88-.24,1.18-.71,.31-.47,.46-1.08,.46-1.83,0-.8-.2-1.5-.61-2.08-.41-.59-.93-.88-1.56-.88-.58,0-.91,.08-.98,.23-.07,.16-.1,.55-.1,1.19v7.85c0,.96,.05,1.58,.16,1.84,.06,.18,.48,.29,1.25,.35,.04,.07,.07,.2,.06,.37s-.02,.29-.06,.35c-.89-.09-1.82-.14-2.79-.14s-1.86,.05-2.75,.14c-.04-.06-.06-.18-.06-.35s.02-.3,.06-.37c.77-.06,1.18-.18,1.25-.35,.1-.26,.16-.87,.16-1.84v-7.19c0-.96-.05-1.58-.16-1.84-.06-.15-.48-.25-1.25-.31-.05-.07-.07-.2-.06-.37s.02-.29,.06-.35c.59,.04,1.52,.06,2.79,.06,.25,0,.71,0,1.38-.03s1.22-.03,1.63-.03c.83,0,1.58,.13,2.25,.4,.67,.26,1.21,.66,1.63,1.2s.62,1.16,.62,1.88Z"/></g><g><path class="uuid-e526c46c-0efd-4824-9866-0b00220a8e4a" d="M41.59,154.22c.3,.15,.45,.34,.45,.55,0,.12-.04,.22-.13,.29s-.22,.1-.39,.1c-.14,0-.3-.01-.49-.04-.34-.04-.63-.06-.9-.06s-.66,.02-1.2,.06v.46c0,.57,.04,1.08,.08,1.53s.1,1,.17,1.65c0,.11,.04,.36,.08,.74s.06,.71,.06,.99c0,.42-.07,.84-.22,1.27-.15,.42-.36,.64-.65,.64-.11,0-.2-.04-.25-.11-.07-.07-.11-.13-.13-.2-.02-.07-.05-.18-.08-.31-.04-.19-.09-.36-.15-.51-.06-.15-.16-.31-.3-.48-.15-.18-.4-.41-.76-.7-.13-.09-.21-.16-.25-.2-.08-.07-.11-.12-.11-.14s.02-.03,.06-.03c.05,0,.11,.02,.2,.06,.21,.09,.42,.17,.63,.22,.21,.05,.38,.08,.5,.08s.2-.03,.24-.1,.06-.18,.06-.34l-.03-.53-.11-2.38c-.67,.89-1.52,1.74-2.55,2.57s-2.17,1.49-3.41,2c-.07,.03-.12,.04-.15,.04-.08,0-.13-.03-.13-.08,0-.05,.06-.11,.17-.18,1.04-.61,2.09-1.42,3.13-2.45,1.04-1.03,1.82-2.1,2.34-3.23-.91,.18-1.7,.37-2.38,.57-.21,.06-.4,.08-.59,.08-.63,0-1.17-.35-1.61-1.04,0,0-.04-.05-.08-.12-.04-.07-.06-.12-.06-.16s.03-.06,.08-.06c.08,0,.2,.04,.35,.11,.28,.12,.64,.18,1.09,.18,.14,0,.6-.04,1.38-.13,.78-.09,1.56-.18,2.35-.29v-.1c0-.34,0-.57-.01-.7-.03-.61-.14-1.02-.32-1.23-.12-.16-.32-.31-.6-.45-.16-.07-.24-.15-.24-.22,0-.06,.08-.11,.23-.15s.35-.07,.59-.07c.28,0,.52,.03,.71,.09s.38,.17,.55,.33c.24,.19,.36,.37,.36,.55,0,.08-.02,.16-.07,.24-.06,.1-.09,.2-.11,.28-.02,.08-.03,.22-.04,.41-.02,.23-.03,.54-.03,.91,.41-.06,.64-.09,.69-.1,.21-.04,.42-.1,.64-.18,.2-.07,.36-.11,.49-.11,.27,0,.55,.08,.85,.23Z"/><path class="uuid-e526c46c-0efd-4824-9866-0b00220a8e4a" d="M50.61,154.69c-.24-.39-.55-.73-.92-1.02-.37-.29-.76-.47-1.16-.53-.16-.05-.24-.08-.24-.11,0-.06,.11-.1,.32-.12,.21-.02,.44-.03,.67-.03,.42,0,.83,.04,1.23,.13s.73,.22,.99,.42c.2,.15,.35,.32,.46,.5,.11,.19,.16,.38,.16,.57,0,.21-.06,.39-.18,.54s-.28,.23-.49,.23c-.33,0-.61-.19-.84-.57Zm-2.03,5.05c0-.16,.01-.29,.04-.41,.03-.11,.06-.17,.1-.18,.04,0,.09,.06,.15,.18s.15,.23,.26,.34c.22,.24,.47,.36,.74,.36,.33,0,.93-.25,1.8-.76,.87-.5,1.9-1.24,3.09-2.22,1.19-.98,2.4-2.13,3.63-3.45,.09-.09,.16-.14,.21-.14,.04,0,.06,.02,.06,.06,0,.07-.04,.16-.13,.28-1.01,1.48-2.15,2.87-3.42,4.14-1.27,1.28-2.38,2.24-3.35,2.88-.06,.04-.14,.09-.27,.17-.12,.07-.22,.15-.31,.22-.08,.07-.17,.16-.27,.26-.16,.2-.35,.29-.57,.29s-.44-.08-.69-.24c-.24-.16-.46-.36-.64-.59-.19-.24-.31-.46-.36-.68-.06-.19-.08-.36-.08-.52Z"/><path class="uuid-e526c46c-0efd-4824-9866-0b00220a8e4a" d="M63.62,162.59s-.02-.02-.02-.04c0-.04,.04-.07,.11-.1,1.71-.75,3.16-1.66,4.35-2.74,1.19-1.08,2.18-2.44,2.97-4.08,.02-.05,.04-.09,.06-.13s.03-.08,.03-.11c0-.07-.05-.1-.14-.1-.11,0-.59,.08-1.44,.25s-1.52,.32-2.02,.45c-.39,.1-.67,.21-.83,.31-.16,.1-.26,.16-.29,.18-.14,.09-.29,.14-.46,.14-.22,0-.48-.09-.76-.27-.28-.18-.53-.41-.73-.69-.08-.11-.13-.28-.13-.49,0-.2,.04-.29,.11-.29,.02,0,.06,.02,.11,.06,.06,.04,.11,.07,.15,.1,.32,.18,.71,.27,1.19,.27,.09,0,.25,0,.48-.03,.25-.03,1.01-.15,2.28-.36,1.27-.21,2-.34,2.2-.39,.13-.03,.27-.1,.41-.21,.14-.1,.25-.15,.32-.15,.14,0,.33,.08,.57,.23,.24,.15,.46,.33,.65,.52s.29,.35,.29,.46c0,.07-.03,.13-.08,.19s-.14,.14-.25,.23c-.03,.03-.11,.1-.25,.22-.14,.12-.25,.26-.34,.42-.9,1.61-2,2.9-3.32,3.87s-3,1.72-5.04,2.25c-.05,.02-.09,.03-.13,.03-.02,0-.04,0-.05-.01Zm2.44-9.39c-.34-.22-.58-.48-.73-.76-.03-.06-.04-.11-.04-.17s.03-.08,.08-.08c.03,0,.08,.02,.17,.05,.08,.03,.16,.06,.24,.08,.02,0,.1,.03,.26,.07s.34,.06,.57,.06c.16,0,.33-.01,.5-.04,1.01-.15,1.75-.3,2.24-.46,.15-.04,.3-.1,.45-.18,.06-.04,.11-.07,.17-.09,.06-.02,.13-.03,.22-.03,.2,0,.41,.06,.64,.17s.43,.25,.59,.42c.16,.17,.24,.32,.24,.46,0,.1-.05,.18-.15,.22-.1,.05-.28,.07-.55,.07h-.42c-.32-.03-.57-.04-.76-.04-.39,0-.84,.03-1.34,.1-.5,.07-.9,.15-1.2,.23-.05,0-.14,.03-.27,.06-.14,.03-.26,.05-.37,.05-.16,0-.34-.06-.55-.18Z"/><path class="uuid-e526c46c-0efd-4824-9866-0b00220a8e4a" d="M87.04,152.23c.12,.15,.17,.28,.17,.39,0,.07-.02,.11-.05,.14-.03,.03-.09,.07-.17,.11-.17,.09-.29,.19-.36,.28-.53,.7-1.12,1.38-1.78,2.03,.3,.08,.52,.16,.66,.24,.16,.08,.24,.21,.24,.39,0,.07-.02,.16-.07,.28,0,.03-.03,.11-.06,.24-.03,.13-.05,.29-.06,.48,0,.07,0,.2,0,.39s0,.5,0,.92c0,1.79,.03,2.88,.1,3.26,.03,.2,.04,.37,.04,.52,0,.28-.05,.5-.14,.66-.09,.16-.23,.24-.42,.24-.26,0-.46-.09-.6-.27-.14-.18-.21-.45-.21-.79,0-.24,.02-.69,.06-1.34,.05-.59,.07-1.13,.07-1.62v-2.06c-.01-.43-.08-.74-.21-.92-1.55,1.41-3.09,2.45-4.63,3.12-.12,.06-.21,.08-.28,.08-.06,0-.08-.01-.08-.04,0-.07,.09-.16,.28-.28,1.18-.91,2.21-1.81,3.11-2.7,.9-.9,1.58-1.68,2.06-2.35,.48-.67,.72-1.13,.72-1.38,0-.2-.08-.38-.25-.56-.05-.05-.09-.08-.13-.11-.04-.03-.06-.05-.06-.07,0-.08,.12-.13,.35-.13s.46,.04,.69,.11c.24,.07,.46,.19,.67,.35,.14,.11,.27,.24,.38,.39Z"/><path class="uuid-e526c46c-0efd-4824-9866-0b00220a8e4a" d="M97.65,154.69c-.24-.39-.55-.73-.92-1.02-.37-.29-.76-.47-1.16-.53-.16-.05-.24-.08-.24-.11,0-.06,.11-.1,.32-.12,.21-.02,.44-.03,.67-.03,.42,0,.83,.04,1.23,.13s.73,.22,.99,.42c.2,.15,.35,.32,.46,.5,.11,.19,.16,.38,.16,.57,0,.21-.06,.39-.18,.54-.12,.15-.29,.23-.49,.23-.33,0-.61-.19-.84-.57Zm-2.03,5.05c0-.16,.01-.29,.04-.41,.03-.11,.06-.17,.1-.18,.04,0,.09,.06,.15,.18,.06,.12,.15,.23,.26,.34,.22,.24,.47,.36,.74,.36,.33,0,.93-.25,1.8-.76s1.9-1.24,3.09-2.22c1.19-.98,2.4-2.13,3.63-3.45,.09-.09,.16-.14,.21-.14,.04,0,.06,.02,.06,.06,0,.07-.04,.16-.13,.28-1.01,1.48-2.15,2.87-3.42,4.14-1.27,1.28-2.38,2.24-3.35,2.88-.06,.04-.15,.09-.27,.17-.12,.07-.22,.15-.31,.22-.08,.07-.17,.16-.27,.26-.16,.2-.35,.29-.57,.29s-.44-.08-.69-.24c-.24-.16-.46-.36-.64-.59-.19-.24-.31-.46-.36-.68-.06-.19-.08-.36-.08-.52Z"/><path class="uuid-e526c46c-0efd-4824-9866-0b00220a8e4a" d="M112.85,157.63c-.11-.06-.21-.13-.28-.22-.22-.27-.41-.48-.57-.62-.15-.14-.34-.28-.55-.41-.24-.14-.53-.25-.85-.34-.07-.03-.1-.06-.1-.1,0-.07,.13-.12,.38-.17,.25-.05,.49-.07,.7-.07,.6,0,1.12,.12,1.57,.37,.45,.25,.67,.59,.67,1.01,0,.19-.06,.34-.18,.46s-.27,.18-.43,.18c-.12,0-.24-.03-.35-.08Zm-.53,4.44c-.26-.3-.47-.66-.63-1.07-.16-.42-.25-.78-.27-1.08,0-.08,0-.16,.03-.22,.02-.07,.05-.1,.1-.1,.04,0,.09,.04,.15,.13,.06,.09,.12,.17,.19,.25,.21,.21,.48,.31,.81,.31,.22,0,.46-.05,.7-.15,1.31-.52,2.63-1.29,3.98-2.31,1.34-1.02,2.61-2.23,3.81-3.64,.08-.12,.16-.18,.24-.18,.06,0,.08,.02,.08,.07s-.03,.14-.1,.27c-.95,1.56-2.16,2.98-3.63,4.28-1.47,1.29-2.89,2.3-4.27,3.03-.08,.04-.17,.1-.26,.18s-.15,.13-.19,.16c-.17,.19-.31,.28-.42,.28-.1,0-.21-.06-.32-.18Zm2.15-7.32c-.13-.07-.23-.14-.29-.22-.27-.33-.49-.57-.67-.74s-.39-.33-.65-.49c-.18-.1-.33-.17-.45-.21-.12-.04-.19-.06-.21-.07-.09-.03-.14-.06-.14-.1,0-.07,.08-.11,.25-.14,.17-.03,.34-.04,.52-.04,.68,0,1.29,.12,1.82,.37,.53,.25,.8,.6,.8,1.06,0,.19-.06,.35-.17,.48-.11,.14-.25,.2-.42,.2-.13,0-.26-.03-.4-.1Z"/><path class="uuid-e526c46c-0efd-4824-9866-0b00220a8e4a" d="M133.92,156.32c.18,.13,.34,.27,.48,.43,.14,.16,.22,.28,.22,.38,0,.07-.05,.17-.15,.29-.08,.1-.15,.19-.19,.27s-.07,.18-.09,.31c-.03,.16-.06,.95-.1,2.38,0,.12-.01,.31-.01,.57v.66c0,.26-.08,.46-.21,.59-.13,.13-.29,.2-.48,.2-.13,0-.25-.07-.34-.2s-.15-.28-.15-.45v-.1c-.2,0-.36,0-.48,.01-.47,.02-.95,.05-1.44,.08-.5,.04-.85,.08-1.05,.13-.12,0-.25,.04-.39,.1-.19,.06-.31,.08-.36,.08-.12,0-.26-.08-.41-.25-.15-.17-.28-.36-.39-.59-.08-.17-.11-.29-.11-.36,0-.04,0-.07,.03-.09,.02-.02,.04-.03,.07-.03,.04,0,.13,.05,.28,.15,.13,.07,.25,.13,.35,.18s.22,.06,.35,.06c.28,0,.83-.03,1.66-.06,.83-.03,1.47-.06,1.94-.09,.05-.28,.1-.8,.15-1.57h-.22c-.62,.03-1.47,.08-2.58,.15-.22,0-.43,.04-.63,.1-.11,.03-.21,.04-.28,.04-.17,0-.35-.08-.54-.25-.19-.17-.33-.37-.41-.6-.03-.07-.04-.14-.04-.24,0-.1,.03-.15,.08-.15,.03,0,.09,.04,.2,.12,.1,.08,.21,.14,.32,.19,.17,.07,.37,.1,.6,.1,.19,0,.67-.02,1.45-.07s1.48-.09,2.09-.14c.04-.57,.06-1.03,.06-1.39,0-.07-.05-.11-.14-.11-.29,0-.8,.04-1.53,.08-.73,.05-1.21,.09-1.46,.13-.18,.03-.36,.07-.55,.11-.21,.05-.35,.07-.45,.07-.14,0-.29-.07-.45-.22-.16-.15-.28-.33-.36-.55-.06-.15-.1-.28-.1-.38,0-.12,.03-.18,.1-.18,.03,0,.07,.03,.13,.08,.06,.06,.12,.11,.19,.15,.15,.11,.4,.17,.76,.17,.46,0,1.13-.02,2.03-.06,.9-.04,1.41-.09,1.55-.15,.06-.03,.15-.08,.29-.17l.1-.06c.05-.03,.11-.04,.17-.04,.1,0,.24,.06,.42,.19Z"/><path class="uuid-e526c46c-0efd-4824-9866-0b00220a8e4a" d="M144.23,158.51c-.1-.14-.17-.31-.2-.51-.06-.32-.15-.6-.27-.86-.13-.26-.31-.49-.57-.69-.09-.07-.14-.12-.14-.17,0-.06,.05-.08,.14-.08,.17,0,.42,.08,.76,.23s.64,.36,.91,.63c.27,.27,.4,.56,.4,.88,0,.2-.05,.38-.16,.54-.11,.16-.26,.25-.47,.25-.17,0-.3-.07-.4-.2Zm-.89,4.19c0-.06,.09-.12,.27-.18,.83-.29,1.65-.77,2.45-1.45,.8-.68,1.49-1.43,2.05-2.25,.56-.83,.94-1.6,1.11-2.32,.07-.3,.11-.5,.11-.62,0-.21-.07-.38-.22-.5-.05-.04-.11-.08-.17-.13-.07-.05-.11-.1-.11-.13,0-.08,.09-.13,.27-.13,.24,0,.48,.04,.7,.13,.23,.08,.47,.26,.71,.52,.24,.27,.36,.52,.36,.75,0,.07-.01,.13-.04,.18-.03,.04-.08,.1-.15,.17-.09,.07-.16,.15-.2,.21-.09,.15-.18,.3-.25,.45-.41,.74-.86,1.43-1.34,2.06-.48,.64-1.15,1.28-2.02,1.92-.87,.64-1.91,1.09-3.12,1.36l-.25,.03c-.1,0-.15-.02-.15-.07Zm3.08-5.5c-.1-.13-.17-.29-.21-.48-.11-.66-.4-1.2-.85-1.62-.1-.07-.15-.12-.15-.17,0-.06,.05-.08,.14-.08,.2,0,.46,.08,.8,.25s.63,.38,.89,.65c.26,.27,.38,.56,.38,.88,0,.23-.06,.42-.17,.56-.11,.14-.26,.21-.45,.21-.15,0-.28-.07-.38-.2Z"/><path class="uuid-e526c46c-0efd-4824-9866-0b00220a8e4a" d="M157.83,162.4c0-.06,.09-.14,.28-.24,1.75-.95,3.17-2.01,4.27-3.17,1.1-1.16,1.89-2.21,2.38-3.13s.74-1.54,.76-1.83c0-.07-.04-.1-.11-.1-.08,0-.46,.05-1.14,.15-.68,.1-1.39,.23-2.14,.38-.75,.15-1.36,.3-1.83,.46-.2,.07-.39,.11-.57,.11-.28,0-.53-.09-.76-.27-.21-.18-.38-.4-.51-.68-.14-.28-.2-.5-.2-.67,0-.1,.04-.15,.11-.15,.06,0,.16,.04,.31,.11,.22,.1,.41,.17,.55,.2s.31,.04,.5,.04c.37,0,1.23-.06,2.56-.17s2.17-.21,2.52-.31c.12-.04,.28-.1,.48-.18,.32-.14,.53-.21,.64-.21,.1,0,.28,.08,.53,.24,.25,.16,.48,.35,.68,.55,.2,.21,.3,.37,.3,.5,0,.1-.03,.19-.08,.27-.06,.08-.15,.19-.28,.33-.24,.26-.42,.49-.52,.69-.62,1.23-1.32,2.28-2.12,3.14-.8,.86-1.7,1.59-2.7,2.19-1,.6-2.19,1.17-3.57,1.72-.1,.04-.18,.06-.24,.06-.07,0-.1-.02-.1-.06Zm9.3-9.49c-.26-.26-.39-.57-.39-.94s.13-.69,.39-.95c.26-.26,.58-.39,.95-.39s.69,.13,.95,.39c.26,.26,.38,.57,.38,.94s-.13,.69-.39,.94c-.26,.26-.57,.39-.94,.39s-.69-.13-.95-.39Zm1.61-.29c.19-.19,.28-.41,.28-.66s-.09-.47-.28-.66c-.19-.19-.41-.28-.66-.28s-.48,.09-.67,.28c-.18,.19-.27,.41-.27,.66s.09,.47,.27,.66c.18,.19,.4,.28,.67,.28s.47-.09,.66-.28Z"/></g><g><path class="uuid-27801395-f239-438d-ae5a-fe750402ab02" d="M109.33,210h-18.67c-.37,0-.67-.3-.67-.67v-18.67c0-.37,.3-.67,.67-.67h8v1.33h-7.33v17.33h17.33v-7.33h1.33v8c0,.37-.3,.67-.67,.67Z"/><path class="uuid-27801395-f239-438d-ae5a-fe750402ab02" d="M99.14,201.8l-.94-.94,10.67-10.67c.19-.19,.48-.25,.73-.14,.25,.1,.41,.35,.41,.62v5.33h-1.33v-3.72l-9.53,9.53Z"/><rect class="uuid-27801395-f239-438d-ae5a-fe750402ab02" x="104" y="190" width="5.33" height="1.33"/></g><g><rect class="uuid-7707bf42-c8dc-4102-b639-458aef063334" x="70" y="40" width="60" height="60"/><polygon class="uuid-e526c46c-0efd-4824-9866-0b00220a8e4a" points="112 87.25 90.47 87.25 84.3 70.26 85.7 69.74 91.53 85.75 112 85.75 112 87.25"/><path class="uuid-e526c46c-0efd-4824-9866-0b00220a8e4a" d="M118.65,87.25h-6.65v-1.5h5.35l2.45-16.96c.08-.63-.11-1.28-.54-1.77s-1.04-.77-1.69-.77h-30.18l-3-13.5h-8.4v-1.5h9.6l3,13.5h28.97c1.08,0,2.11,.47,2.82,1.28,.71,.81,1.04,1.89,.9,2.97l-2.64,18.25Z"/><rect class="uuid-e526c46c-0efd-4824-9866-0b00220a8e4a" x="76" y="52.75" width="9" height="1.5"/><circle class="uuid-e526c46c-0efd-4824-9866-0b00220a8e4a" cx="98.5" cy="86.5" r="3"/><circle class="uuid-e526c46c-0efd-4824-9866-0b00220a8e4a" cx="110.5" cy="86.5" r="3"/></g></g></g></svg>